<svg width="90" height="18" viewBox="0 0 90 18" fill="none" xmlns="http://www.w3.org/2000/svg">
<path d="M4.02911 18H0.297321V5.98232H4.02911V18ZM2.16121 4.343C0.967902 4.343 0 3.35458 0 2.16125C8.54116e-09 1.58805 0.227698 1.03833 0.633002 0.633017C1.03831 0.227703 1.58802 0 2.16121 0C2.73439 0 3.2841 0.227703 3.68941 0.633017C4.09471 1.03833 4.32241 1.58805 4.32241 2.16125C4.32241 3.35458 3.35411 4.343 2.16121 4.343ZM17.996 18H14.2722V12.1499C14.2722 10.7556 14.2441 8.96766 12.332 8.96766C10.3918 8.96766 10.0945 10.4824 10.0945 12.0494V18H6.3667V5.98232H9.9458V7.62164H9.99804C10.4963 6.67743 11.7133 5.68097 13.5289 5.68097C17.3057 5.68097 18 8.16808 18 11.3985V18H17.996Z" fill="#D74A19"/>
<path d="M42.002 4.38503C39.4481 4.38503 37.3881 6.4455 37.3881 9C37.3881 11.5545 39.4481 13.615 42.002 13.615C44.5559 13.615 46.616 11.5545 46.616 9C46.616 6.4455 44.5559 4.38503 42.002 4.38503ZM42.002 12.0003C40.3516 12.0003 39.0023 10.6548 39.0023 9C39.0023 7.3452 40.3476 5.99967 42.002 5.99967C43.6564 5.99967 45.0017 7.3452 45.0017 9C45.0017 10.6548 43.6524 12.0003 42.002 12.0003ZM47.8809 4.19625C47.8809 4.79471 47.399 5.27268 46.8047 5.27268C46.2064 5.27268 45.7285 4.79069 45.7285 4.19625C45.7285 3.60181 46.2104 3.11983 46.8047 3.11983C47.399 3.11983 47.8809 3.60181 47.8809 4.19625ZM50.9368 5.28874C50.8685 3.84681 50.5392 2.56956 49.4831 1.51724C48.431 0.464911 47.154 0.135557 45.7124 0.0632601C44.2267 -0.0210867 39.7733 -0.0210867 38.2876 0.0632601C36.85 0.131541 35.573 0.460895 34.5169 1.51322C33.4608 2.56555 33.1355 3.8428 33.0632 5.28473C32.9789 6.77084 32.9789 11.2251 33.0632 12.7113C33.1315 14.1532 33.4608 15.4304 34.5169 16.4828C35.573 17.5351 36.846 17.8644 38.2876 17.9367C39.7733 18.0211 44.2267 18.0211 45.7124 17.9367C47.154 17.8685 48.431 17.5391 49.4831 16.4828C50.5352 15.4304 50.8645 14.1532 50.9368 12.7113C51.0211 11.2251 51.0211 6.77485 50.9368 5.28874ZM49.0173 14.3058C48.7041 15.093 48.0977 15.6995 47.3066 16.0168C46.122 16.4868 43.3111 16.3783 42.002 16.3783C40.6929 16.3783 37.878 16.4828 36.6974 16.0168C35.9103 15.7036 35.304 15.0971 34.9867 14.3058C34.5169 13.1209 34.6253 10.3094 34.6253 9C34.6253 7.69062 34.5209 4.87504 34.9867 3.69419C35.2999 2.90695 35.9063 2.30046 36.6974 1.98315C37.882 1.51322 40.6929 1.62167 42.002 1.62167C43.3111 1.62167 46.126 1.51724 47.3066 1.98315C48.0937 2.29644 48.7001 2.90293 49.0173 3.69419C49.4871 4.87906 49.3787 7.69062 49.3787 9C49.3787 10.3094 49.4871 13.125 49.0173 14.3058Z" fill="#D74A19"/>
<path d="M89.5453 5.94375C89.7281 5.79844 90 5.93437 90 6.16406V15.75C90 16.9922 88.9922 18 87.75 18H68.25C67.0078 18 66 16.9922 66 15.75V6.16875C66 5.93438 66.2672 5.80312 66.4547 5.94844C67.5047 6.76406 68.8969 7.8 73.6781 11.2734C74.6672 11.9953 76.3359 13.5141 78 13.5047C79.6734 13.5187 81.375 11.9672 82.3266 11.2734C87.1078 7.8 88.4953 6.75937 89.5453 5.94375ZM78 12C79.0875 12.0188 80.6531 10.6312 81.4406 10.0594C87.6609 5.54531 88.1344 5.15156 89.5688 4.02656C89.8406 3.81562 90 3.4875 90 3.14062V2.25C90 1.00781 88.9922 0 87.75 0H68.25C67.0078 0 66 1.00781 66 2.25V3.14062C66 3.4875 66.1594 3.81094 66.4312 4.02656C67.8656 5.14687 68.3391 5.54531 74.5594 10.0594C75.3469 10.6312 76.9125 12.0188 78 12Z" fill="#D74A19"/>
</svg>
