<svg width="30" height="26" viewBox="0 0 30 26" fill="none" xmlns="http://www.w3.org/2000/svg">
<path d="M1.07143 4.77551H28.9286C29.5203 4.77551 30 4.30041 30 3.71429V1.06122C30 0.475097 29.5203 0 28.9286 0H1.07143C0.479665 0 0 0.475097 0 1.06122V3.71429C0 4.30041 0.479665 4.77551 1.07143 4.77551ZM1.07143 15.3878H28.9286C29.5203 15.3878 30 14.9127 30 14.3265V11.6735C30 11.0873 29.5203 10.6122 28.9286 10.6122H1.07143C0.479665 10.6122 0 11.0873 0 11.6735V14.3265C0 14.9127 0.479665 15.3878 1.07143 15.3878ZM1.07143 26H28.9286C29.5203 26 30 25.5249 30 24.9388V22.2857C30 21.6996 29.5203 21.2245 28.9286 21.2245H1.07143C0.479665 21.2245 0 21.6996 0 22.2857V24.9388C0 25.5249 0.479665 26 1.07143 26Z" fill="black"/>
</svg>
